TITLE ""
FILE "LR_black_phrase_E_A07.mp3" MP3
  TRACK 01 AUDIO
    TITLE "LR_black_phrase_E_A07_001"
    INDEX 01 00:00:00
  TRACK 02 AUDIO
    TITLE "LR_black_phrase_E_A07_002"
    INDEX 01 00:00:14
  TRACK 03 AUDIO
    TITLE "LR_black_phrase_E_A07_003"
    INDEX 01 00:01:45
  TRACK 04 AUDIO
    TITLE "LR_black_phrase_E_A07_004"
    INDEX 01 00:01:74
  TRACK 05 AUDIO
    TITLE "LR_black_phrase_E_A07_005"
    INDEX 01 00:04:24
  TRACK 06 AUDIO
    TITLE "LR_black_phrase_E_A07_006"
    INDEX 01 00:05:02
  TRACK 07 AUDIO
    TITLE "LR_black_phrase_E_A07_007"
    INDEX 01 00:07:26
  TRACK 08 AUDIO
    TITLE "LR_black_phrase_E_A07_008"
    INDEX 01 00:08:29
  TRACK 09 AUDIO
    TITLE "LR_black_phrase_E_A07_009"
    INDEX 01 00:09:56
  TRACK 10 AUDIO
    TITLE "LR_black_phrase_E_A07_010"
    INDEX 01 00:10:11
  TRACK 11 AUDIO
    TITLE "LR_black_phrase_E_A07_011"
    INDEX 01 00:12:53
  TRACK 12 AUDIO
    TITLE "LR_black_phrase_E_A07_012"
    INDEX 01 00:13:33
  TRACK 13 AUDIO
    TITLE "LR_black_phrase_E_A07_013"
    INDEX 01 00:15:75
  TRACK 14 AUDIO
    TITLE "LR_black_phrase_E_A07_014"
    INDEX 01 00:17:05
  TRACK 15 AUDIO
    TITLE "LR_black_phrase_E_A07_015"
    INDEX 01 00:18:47
  TRACK 16 AUDIO
    TITLE "LR_black_phrase_E_A07_016"
    INDEX 01 00:19:02
  TRACK 17 AUDIO
    TITLE "LR_black_phrase_E_A07_017"
    INDEX 01 00:21:18
  TRACK 18 AUDIO
    TITLE "LR_black_phrase_E_A07_018"
    INDEX 01 00:21:71
  TRACK 19 AUDIO
    TITLE "LR_black_phrase_E_A07_019"
    INDEX 01 00:24:13
  TRACK 20 AUDIO
    TITLE "LR_black_phrase_E_A07_020"
    INDEX 01 00:25:12
  TRACK 21 AUDIO
    TITLE "LR_black_phrase_E_A07_021"
    INDEX 01 00:26:33
  TRACK 22 AUDIO
    TITLE "LR_black_phrase_E_A07_022"
    INDEX 01 00:26:53
  TRACK 23 AUDIO
    TITLE "LR_black_phrase_E_A07_023"
    INDEX 01 00:29:30
  TRACK 24 AUDIO
    TITLE "LR_black_phrase_E_A07_024"
    INDEX 01 00:29:75
  TRACK 25 AUDIO
    TITLE "LR_black_phrase_E_A07_025"
    INDEX 01 00:32:51
  TRACK 26 AUDIO
    TITLE "LR_black_phrase_E_A07_026"
    INDEX 01 00:33:51
  TRACK 27 AUDIO
    TITLE "LR_black_phrase_E_A07_027"
    INDEX 01 00:34:62
  TRACK 28 AUDIO
    TITLE "LR_black_phrase_E_A07_028"
    INDEX 01 00:35:07
  TRACK 29 AUDIO
    TITLE "LR_black_phrase_E_A07_029"
    INDEX 01 00:37:58
  TRACK 30 AUDIO
    TITLE "LR_black_phrase_E_A07_030"
    INDEX 01 00:38:27
  TRACK 31 AUDIO
    TITLE "LR_black_phrase_E_A07_031"
    INDEX 01 00:41:03
  TRACK 32 AUDIO
    TITLE "LR_black_phrase_E_A07_032"
    INDEX 01 00:41:74
  TRACK 33 AUDIO
    TITLE "LR_black_phrase_E_A07_033"
    INDEX 01 00:43:32
  TRACK 34 AUDIO
    TITLE "LR_black_phrase_E_A07_034"
    INDEX 01 00:43:51
  TRACK 35 AUDIO
    TITLE "LR_black_phrase_E_A07_035"
    INDEX 01 00:46:10
  TRACK 36 AUDIO
    TITLE "LR_black_phrase_E_A07_036"
    INDEX 01 00:46:57
  TRACK 37 AUDIO
    TITLE "LR_black_phrase_E_A07_037"
    INDEX 01 00:49:17
  TRACK 38 AUDIO
    TITLE "LR_black_phrase_E_A07_038"
    INDEX 01 00:50:14
  TRACK 39 AUDIO
    TITLE "LR_black_phrase_E_A07_039"
    INDEX 01 00:51:21
  TRACK 40 AUDIO
    TITLE "LR_black_phrase_E_A07_040"
    INDEX 01 00:51:49
  TRACK 41 AUDIO
    TITLE "LR_black_phrase_E_A07_041"
    INDEX 01 00:53:50
  TRACK 42 AUDIO
    TITLE "LR_black_phrase_E_A07_042"
    INDEX 01 00:54:28
  TRACK 43 AUDIO
    TITLE "LR_black_phrase_E_A07_043"
    INDEX 01 00:56:28
  TRACK 44 AUDIO
    TITLE "LR_black_phrase_E_A07_044"
    INDEX 01 00:57:30
  TRACK 45 AUDIO
    TITLE "LR_black_phrase_E_A07_045"
    INDEX 01 00:58:57
  TRACK 46 AUDIO
    TITLE "LR_black_phrase_E_A07_046"
    INDEX 01 00:59:09
  TRACK 47 AUDIO
    TITLE "LR_black_phrase_E_A07_047"
    INDEX 01 01:01:16
  TRACK 48 AUDIO
    TITLE "LR_black_phrase_E_A07_048"
    INDEX 01 01:01:69
  TRACK 49 AUDIO
    TITLE "LR_black_phrase_E_A07_049"
    INDEX 01 01:04:01
  TRACK 50 AUDIO
    TITLE "LR_black_phrase_E_A07_050"
    INDEX 01 01:05:04
  TRACK 51 AUDIO
    TITLE "LR_black_phrase_E_A07_051"
    INDEX 01 01:06:35
  TRACK 52 AUDIO
    TITLE "LR_black_phrase_E_A07_052"
    INDEX 01 01:06:66
  TRACK 53 AUDIO
    TITLE "LR_black_phrase_E_A07_053"
    INDEX 01 01:08:67
  TRACK 54 AUDIO
    TITLE "LR_black_phrase_E_A07_054"
    INDEX 01 01:09:45
  TRACK 55 AUDIO
    TITLE "LR_black_phrase_E_A07_055"
    INDEX 01 01:11:46
  TRACK 56 AUDIO
    TITLE "LR_black_phrase_E_A07_056"
    INDEX 01 01:12:43
  TRACK 57 AUDIO
    TITLE "LR_black_phrase_E_A07_057"
    INDEX 01 01:13:54
  TRACK 58 AUDIO
    TITLE "LR_black_phrase_E_A07_058"
    INDEX 01 01:14:09
  TRACK 59 AUDIO
    TITLE "LR_black_phrase_E_A07_059"
    INDEX 01 01:16:43
  TRACK 60 AUDIO
    TITLE "LR_black_phrase_E_A07_060"
    INDEX 01 01:17:15
  TRACK 61 AUDIO
    TITLE "LR_black_phrase_E_A07_061"
    INDEX 01 01:19:51
  TRACK 62 AUDIO
    TITLE "LR_black_phrase_E_A07_062"
    INDEX 01 01:20:49
  TRACK 63 AUDIO
    TITLE "LR_black_phrase_E_A07_063"
    INDEX 01 01:21:64
  TRACK 64 AUDIO
    TITLE "LR_black_phrase_E_A07_064"
    INDEX 01 01:22:10
  TRACK 65 AUDIO
    TITLE "LR_black_phrase_E_A07_065"
    INDEX 01 01:23:66
  TRACK 66 AUDIO
    TITLE "LR_black_phrase_E_A07_066"
    INDEX 01 01:24:37
  TRACK 67 AUDIO
    TITLE "LR_black_phrase_E_A07_067"
    INDEX 01 01:26:20
  TRACK 68 AUDIO
    TITLE "LR_black_phrase_E_A07_068"
    INDEX 01 01:27:11
  TRACK 69 AUDIO
    TITLE "LR_black_phrase_E_A07_069"
    INDEX 01 01:28:36
  TRACK 70 AUDIO
    TITLE "LR_black_phrase_E_A07_070"
    INDEX 01 01:28:58
  TRACK 71 AUDIO
    TITLE "LR_black_phrase_E_A07_071"
    INDEX 01 01:31:03
  TRACK 72 AUDIO
    TITLE "LR_black_phrase_E_A07_072"
    INDEX 01 01:31:46
  TRACK 73 AUDIO
    TITLE "LR_black_phrase_E_A07_073"
    INDEX 01 01:33:67
  TRACK 74 AUDIO
    TITLE "LR_black_phrase_E_A07_074"
    INDEX 01 01:34:68
  TRACK 75 AUDIO
    TITLE "LR_black_phrase_E_A07_075"
    INDEX 01 01:36:24
  TRACK 76 AUDIO
    TITLE "LR_black_phrase_E_A07_076"
    INDEX 01 01:36:36
  TRACK 77 AUDIO
    TITLE "LR_black_phrase_E_A07_077"
    INDEX 01 01:38:09
  TRACK 78 AUDIO
    TITLE "LR_black_phrase_E_A07_078"
    INDEX 01 01:38:54
  TRACK 79 AUDIO
    TITLE "LR_black_phrase_E_A07_079"
    INDEX 01 01:40:26
  TRACK 80 AUDIO
    TITLE "LR_black_phrase_E_A07_080"
    INDEX 01 01:41:31
  TRACK 81 AUDIO
    TITLE "LR_black_phrase_E_A07_081"
    INDEX 01 01:42:60
  TRACK 82 AUDIO
    TITLE "LR_black_phrase_E_A07_082"
    INDEX 01 01:43:16
  TRACK 83 AUDIO
    TITLE "LR_black_phrase_E_A07_083"
    INDEX 01 01:45:43
  TRACK 84 AUDIO
    TITLE "LR_black_phrase_E_A07_084"
    INDEX 01 01:46:22
  TRACK 85 AUDIO
    TITLE "LR_black_phrase_E_A07_085"
    INDEX 01 01:48:49
  TRACK 86 AUDIO
    TITLE "LR_black_phrase_E_A07_086"
    INDEX 01 01:49:54
  TRACK 87 AUDIO
    TITLE "LR_black_phrase_E_A07_087"
    INDEX 01 01:50:73
  TRACK 88 AUDIO
    TITLE "LR_black_phrase_E_A07_088"
    INDEX 01 01:51:27
  TRACK 89 AUDIO
    TITLE "LR_black_phrase_E_A07_089"
    INDEX 01 01:53:44
  TRACK 90 AUDIO
    TITLE "LR_black_phrase_E_A07_090"
    INDEX 01 01:54:26
  TRACK 91 AUDIO
    TITLE "LR_black_phrase_E_A07_091"
    INDEX 01 01:56:42
  TRACK 92 AUDIO
    TITLE "LR_black_phrase_E_A07_092"
    INDEX 01 01:57:42
  TRACK 93 AUDIO
    TITLE "LR_black_phrase_E_A07_093"
    INDEX 01 01:58:61
  TRACK 94 AUDIO
    TITLE "LR_black_phrase_E_A07_094"
    INDEX 01 01:59:09
  TRACK 95 AUDIO
    TITLE "LR_black_phrase_E_A07_095"
    INDEX 01 02:01:16
  TRACK 96 AUDIO
    TITLE "LR_black_phrase_E_A07_096"
    INDEX 01 02:01:63
  TRACK 97 AUDIO
    TITLE "LR_black_phrase_E_A07_097"
    INDEX 01 02:03:70
  TRACK 98 AUDIO
    TITLE "LR_black_phrase_E_A07_098"
    INDEX 01 02:04:67
  TRACK 99 AUDIO
    TITLE "LR_black_phrase_E_A07_099"
    INDEX 01 02:06:13
  TRACK 100 AUDIO
    TITLE "LR_black_phrase_E_A07_100"
    INDEX 01 02:06:35
  TRACK 101 AUDIO
    TITLE "LR_black_phrase_E_A07_101"
    INDEX 01 02:09:12
  TRACK 102 AUDIO
    TITLE "LR_black_phrase_E_A07_102"
    INDEX 01 02:09:57
  TRACK 103 AUDIO
    TITLE "LR_black_phrase_E_A07_103"
    INDEX 01 02:12:34
  TRACK 104 AUDIO
    TITLE "LR_black_phrase_E_A07_104"
    INDEX 01 02:13:29
  TRACK 105 AUDIO
    TITLE "LR_black_phrase_E_A07_105"
    INDEX 01 02:14:52
  TRACK 106 AUDIO
    TITLE "LR_black_phrase_E_A07_106"
    INDEX 01 02:14:72
  TRACK 107 AUDIO
    TITLE "LR_black_phrase_E_A07_107"
    INDEX 01 02:17:27
  TRACK 108 AUDIO
    TITLE "LR_black_phrase_E_A07_108"
    INDEX 01 02:18:03
  TRACK 109 AUDIO
    TITLE "LR_black_phrase_E_A07_109"
    INDEX 01 02:20:33
  TRACK 110 AUDIO
    TITLE "LR_black_phrase_E_A07_110"
    INDEX 01 02:21:38
  TRACK 111 AUDIO
    TITLE "LR_black_phrase_E_A07_111"
    INDEX 01 02:22:55
  TRACK 112 AUDIO
    TITLE "LR_black_phrase_E_A07_112"
    INDEX 01 02:23:10
  TRACK 113 AUDIO
    TITLE "LR_black_phrase_E_A07_113"
    INDEX 01 02:25:58
  TRACK 114 AUDIO
    TITLE "LR_black_phrase_E_A07_114"
    INDEX 01 02:26:38
  TRACK 115 AUDIO
    TITLE "LR_black_phrase_E_A07_115"
    INDEX 01 02:29:10
  TRACK 116 AUDIO
    TITLE "LR_black_phrase_E_A07_116"
    INDEX 01 02:30:14
  TRACK 117 AUDIO
    TITLE "LR_black_phrase_E_A07_117"
    INDEX 01 02:31:21
  TRACK 118 AUDIO
    TITLE "LR_black_phrase_E_A07_118"
    INDEX 01 02:31:52
  TRACK 119 AUDIO
    TITLE "LR_black_phrase_E_A07_119"
    INDEX 01 02:33:45
  TRACK 120 AUDIO
    TITLE "LR_black_phrase_E_A07_120"
    INDEX 01 02:34:27
  TRACK 121 AUDIO
    TITLE "LR_black_phrase_E_A07_121"
    INDEX 01 02:36:22
  TRACK 122 AUDIO
    TITLE "LR_black_phrase_E_A07_122"
    INDEX 01 02:37:28
  TRACK 123 AUDIO
    TITLE "LR_black_phrase_E_A07_123"
    INDEX 01 02:38:58
  TRACK 124 AUDIO
    TITLE "LR_black_phrase_E_A07_124"
    INDEX 01 02:39:13
  TRACK 125 AUDIO
    TITLE "LR_black_phrase_E_A07_125"
    INDEX 01 02:41:06
  TRACK 126 AUDIO
    TITLE "LR_black_phrase_E_A07_126"
    INDEX 01 02:41:61
  TRACK 127 AUDIO
    TITLE "LR_black_phrase_E_A07_127"
    INDEX 01 02:43:54
  TRACK 128 AUDIO
    TITLE "LR_black_phrase_E_A07_128"
    INDEX 01 02:44:57
  TRACK 129 AUDIO
    TITLE "LR_black_phrase_E_A07_129"
    INDEX 01 02:46:13
  TRACK 130 AUDIO
    TITLE "LR_black_phrase_E_A07_130"
    INDEX 01 02:46:32
  TRACK 131 AUDIO
    TITLE "LR_black_phrase_E_A07_131"
    INDEX 01 02:48:41
  TRACK 132 AUDIO
    TITLE "LR_black_phrase_E_A07_132"
    INDEX 01 02:49:13
  TRACK 133 AUDIO
    TITLE "LR_black_phrase_E_A07_133"
    INDEX 01 02:51:18
  TRACK 134 AUDIO
    TITLE "LR_black_phrase_E_A07_134"
    INDEX 01 02:52:12
  TRACK 135 AUDIO
    TITLE "LR_black_phrase_E_A07_135"
    INDEX 01 02:53:34
  TRACK 136 AUDIO
    TITLE "LR_black_phrase_E_A07_136"
    INDEX 01 02:53:60
  TRACK 137 AUDIO
    TITLE "LR_black_phrase_E_A07_137"
    INDEX 01 02:55:73
  TRACK 138 AUDIO
    TITLE "LR_black_phrase_E_A07_138"
    INDEX 01 02:56:43
  TRACK 139 AUDIO
    TITLE "LR_black_phrase_E_A07_139"
    INDEX 01 02:58:55
  TRACK 140 AUDIO
    TITLE "LR_black_phrase_E_A07_140"
    INDEX 01 02:59:51
  TRACK 141 AUDIO
    TITLE "LR_black_phrase_E_A07_141"
    INDEX 01 03:01:09
  TRACK 142 AUDIO
    TITLE "LR_black_phrase_E_A07_142"
    INDEX 01 03:01:34
  TRACK 143 AUDIO
    TITLE "LR_black_phrase_E_A07_143"
    INDEX 01 03:03:70
  TRACK 144 AUDIO
    TITLE "LR_black_phrase_E_A07_144"
    INDEX 01 03:04:46
  TRACK 145 AUDIO
    TITLE "LR_black_phrase_E_A07_145"
    INDEX 01 03:07:03
  TRACK 146 AUDIO
    TITLE "LR_black_phrase_E_A07_146"
    INDEX 01 03:08:12
  TRACK 147 AUDIO
    TITLE "LR_black_phrase_E_A07_147"
    INDEX 01 03:09:30
  TRACK 148 AUDIO
    TITLE "LR_black_phrase_E_A07_148"
    INDEX 01 03:09:59
  TRACK 149 AUDIO
    TITLE "LR_black_phrase_E_A07_149"
    INDEX 01 03:12:06
  TRACK 150 AUDIO
    TITLE "LR_black_phrase_E_A07_150"
    INDEX 01 03:12:63
  TRACK 151 AUDIO
    TITLE "LR_black_phrase_E_A07_151"
    INDEX 01 03:15:09
  TRACK 152 AUDIO
    TITLE "LR_black_phrase_E_A07_152"
    INDEX 01 03:16:16
  TRACK 153 AUDIO
    TITLE "LR_black_phrase_E_A07_153"
    INDEX 01 03:17:41
  TRACK 154 AUDIO
    TITLE "LR_black_phrase_E_A07_154"
    INDEX 01 03:17:70
  TRACK 155 AUDIO
    TITLE "LR_black_phrase_E_A07_155"
    INDEX 01 03:20:33
  TRACK 156 AUDIO
    TITLE "LR_black_phrase_E_A07_156"
    INDEX 01 03:21:15
  TRACK 157 AUDIO
    TITLE "LR_black_phrase_E_A07_157"
    INDEX 01 03:23:53
  TRACK 158 AUDIO
    TITLE "LR_black_phrase_E_A07_158"
    INDEX 01 03:24:61
  TRACK 159 AUDIO
    TITLE "LR_black_phrase_E_A07_159"
    INDEX 01 03:26:10
  TRACK 160 AUDIO
    TITLE "LR_black_phrase_E_A07_160"
    INDEX 01 03:26:40
  TRACK 161 AUDIO
    TITLE "LR_black_phrase_E_A07_161"
    INDEX 01 03:29:13
  TRACK 162 AUDIO
    TITLE "LR_black_phrase_E_A07_162"
    INDEX 01 03:29:68
  TRACK 163 AUDIO
    TITLE "LR_black_phrase_E_A07_163"
    INDEX 01 03:32:40
  TRACK 164 AUDIO
    TITLE "LR_black_phrase_E_A07_164"
    INDEX 01 03:33:40
  TRACK 165 AUDIO
    TITLE "LR_black_phrase_E_A07_165"
    INDEX 01 03:34:57
  TRACK 166 AUDIO
    TITLE "LR_black_phrase_E_A07_166"
    INDEX 01 03:35:03
  TRACK 167 AUDIO
    TITLE "LR_black_phrase_E_A07_167"
    INDEX 01 03:37:57
  TRACK 168 AUDIO
    TITLE "LR_black_phrase_E_A07_168"
    INDEX 01 03:38:25
  TRACK 169 AUDIO
    TITLE "LR_black_phrase_E_A07_169"
    INDEX 01 03:41:06
  TRACK 170 AUDIO
    TITLE "LR_black_phrase_E_A07_170"
    INDEX 01 03:41:73
  TRACK 171 AUDIO
    TITLE "LR_black_phrase_E_A07_171"
    INDEX 01 03:43:17
  TRACK 172 AUDIO
    TITLE "LR_black_phrase_E_A07_172"
    INDEX 01 03:43:36
  TRACK 173 AUDIO
    TITLE "LR_black_phrase_E_A07_173"
    INDEX 01 03:46:13
  TRACK 174 AUDIO
    TITLE "LR_black_phrase_E_A07_174"
    INDEX 01 03:46:62
  TRACK 175 AUDIO
    TITLE "LR_black_phrase_E_A07_175"
    INDEX 01 03:49:39
  TRACK 176 AUDIO
    TITLE "LR_black_phrase_E_A07_176"
    INDEX 01 03:50:38
  TRACK 177 AUDIO
    TITLE "LR_black_phrase_E_A07_177"
    INDEX 01 03:51:53
  TRACK 178 AUDIO
    TITLE "LR_black_phrase_E_A07_178"
    INDEX 01 03:51:75
  TRACK 179 AUDIO
    TITLE "LR_black_phrase_E_A07_179"
    INDEX 01 03:54:36
  TRACK 180 AUDIO
    TITLE "LR_black_phrase_E_A07_180"
    INDEX 01 03:55:10
  TRACK 181 AUDIO
    TITLE "LR_black_phrase_E_A07_181"
    INDEX 01 03:57:46
